<svg id="visual" viewBox="0 0 900 600" width="900" height="600" xmlns="http://www.w3.org/2000/svg" xmlns:xlink="http://www.w3.org/1999/xlink" version="1.1"><rect x="0" y="0" width="900" height="600" fill="#10002B"></rect><path d="M0 419L129 359L257 364L386 434L514 439L643 410L771 382L900 392L900 601L771 601L643 601L514 601L386 601L257 601L129 601L0 601Z" fill="#9d4edd"></path><path d="M0 430L129 460L257 402L386 417L514 397L643 473L771 417L900 405L900 601L771 601L643 601L514 601L386 601L257 601L129 601L0 601Z" fill="#8e3fd2"></path><path d="M0 494L129 505L257 472L386 469L514 490L643 469L771 466L900 479L900 601L771 601L643 601L514 601L386 601L257 601L129 601L0 601Z" fill="#7f30c7"></path><path d="M0 508L129 534L257 530L386 542L514 515L643 513L771 511L900 541L900 601L771 601L643 601L514 601L386 601L257 601L129 601L0 601Z" fill="#701fbc"></path><path d="M0 553L129 536L257 534L386 552L514 567L643 554L771 562L900 549L900 601L771 601L643 601L514 601L386 601L257 601L129 601L0 601Z" fill="#6009b2"></path></svg>