<svg id="visual" viewBox="0 0 900 600" width="900" height="600" xmlns="http://www.w3.org/2000/svg" xmlns:xlink="http://www.w3.org/1999/xlink" version="1.1"><path d="M0 408L21.5 400.3C43 392.7 86 377.3 128.8 371.7C171.7 366 214.3 370 257.2 377.8C300 385.7 343 397.3 385.8 392.2C428.7 387 471.3 365 514.2 365.5C557 366 600 389 642.8 397.8C685.7 406.7 728.3 401.3 771.2 383.3C814 365.3 857 334.7 878.5 319.3L900 304L900 601L878.5 601C857 601 814 601 771.2 601C728.3 601 685.7 601 642.8 601C600 601 557 601 514.2 601C471.3 601 428.7 601 385.8 601C343 601 300 601 257.2 601C214.3 601 171.7 601 128.8 601C86 601 43 601 21.5 601L0 601Z" fill="#9d4edd"></path><path d="M0 370L21.5 377.8C43 385.7 86 401.3 128.8 410.7C171.7 420 214.3 423 257.2 414.7C300 406.3 343 386.7 385.8 377.7C428.7 368.7 471.3 370.3 514.2 370.7C557 371 600 370 642.8 379.7C685.7 389.3 728.3 409.7 771.2 422.5C814 435.3 857 440.7 878.5 443.3L900 446L900 601L878.5 601C857 601 814 601 771.2 601C728.3 601 685.7 601 642.8 601C600 601 557 601 514.2 601C471.3 601 428.7 601 385.8 601C343 601 300 601 257.2 601C214.3 601 171.7 601 128.8 601C86 601 43 601 21.5 601L0 601Z" fill="#7c39b5"></path><path d="M0 459L21.5 456.8C43 454.7 86 450.3 128.8 444.3C171.7 438.3 214.3 430.7 257.2 435.2C300 439.7 343 456.3 385.8 465.2C428.7 474 471.3 475 514.2 465C557 455 600 434 642.8 425.3C685.7 416.7 728.3 420.3 771.2 419.8C814 419.3 857 414.7 878.5 412.3L900 410L900 601L878.5 601C857 601 814 601 771.2 601C728.3 601 685.7 601 642.8 601C600 601 557 601 514.2 601C471.3 601 428.7 601 385.8 601C343 601 300 601 257.2 601C214.3 601 171.7 601 128.8 601C86 601 43 601 21.5 601L0 601Z" fill="#5d248e"></path><path d="M0 495L21.5 490.3C43 485.7 86 476.3 128.8 481.2C171.7 486 214.3 505 257.2 503.7C300 502.3 343 480.7 385.8 477.2C428.7 473.7 471.3 488.3 514.2 499.2C557 510 600 517 642.8 512.2C685.7 507.3 728.3 490.7 771.2 481.8C814 473 857 472 878.5 471.5L900 471L900 601L878.5 601C857 601 814 601 771.2 601C728.3 601 685.7 601 642.8 601C600 601 557 601 514.2 601C471.3 601 428.7 601 385.8 601C343 601 300 601 257.2 601C214.3 601 171.7 601 128.8 601C86 601 43 601 21.5 601L0 601Z" fill="#401069"></path><path d="M0 525L21.5 523.3C43 521.7 86 518.3 128.8 519.7C171.7 521 214.3 527 257.2 526.5C300 526 343 519 385.8 519.7C428.7 520.3 471.3 528.7 514.2 533.8C557 539 600 541 642.8 545C685.7 549 728.3 555 771.2 550.3C814 545.7 857 530.3 878.5 522.7L900 515L900 601L878.5 601C857 601 814 601 771.2 601C728.3 601 685.7 601 642.8 601C600 601 557 601 514.2 601C471.3 601 428.7 601 385.8 601C343 601 300 601 257.2 601C214.3 601 171.7 601 128.8 601C86 601 43 601 21.5 601L0 601Z" fill="#240046"></path></svg>