<svg id="visual" viewBox="0 0 960 540" width="960" height="540" xmlns="http://www.w3.org/2000/svg" xmlns:xlink="http://www.w3.org/1999/xlink" version="1.1"><rect x="0" y="0" width="960" height="540" fill="#10002B"></rect><path d="M0 360L32 362.8C64 365.7 128 371.3 192 366C256 360.7 320 344.3 384 341C448 337.7 512 347.3 576 356.2C640 365 704 373 768 375.7C832 378.3 896 375.7 928 374.3L960 373L960 541L928 541C896 541 832 541 768 541C704 541 640 541 576 541C512 541 448 541 384 541C320 541 256 541 192 541C128 541 64 541 32 541L0 541Z" fill="#7b2cbf"></path><path d="M0 380L32 378C64 376 128 372 192 373C256 374 320 380 384 392.5C448 405 512 424 576 425.3C640 426.7 704 410.3 768 408C832 405.7 896 417.3 928 423.2L960 429L960 541L928 541C896 541 832 541 768 541C704 541 640 541 576 541C512 541 448 541 384 541C320 541 256 541 192 541C128 541 64 541 32 541L0 541Z" fill="#5d1b94"></path><path d="M0 470L32 466.3C64 462.7 128 455.3 192 450.5C256 445.7 320 443.3 384 447.5C448 451.7 512 462.3 576 463.7C640 465 704 457 768 452.2C832 447.3 896 445.7 928 444.8L960 444L960 541L928 541C896 541 832 541 768 541C704 541 640 541 576 541C512 541 448 541 384 541C320 541 256 541 192 541C128 541 64 541 32 541L0 541Z" fill="#3f0b6c"></path><path d="M0 463L32 467.7C64 472.3 128 481.7 192 484.3C256 487 320 483 384 483.3C448 483.7 512 488.3 576 490.5C640 492.7 704 492.3 768 492.3C832 492.3 896 492.7 928 492.8L960 493L960 541L928 541C896 541 832 541 768 541C704 541 640 541 576 541C512 541 448 541 384 541C320 541 256 541 192 541C128 541 64 541 32 541L0 541Z" fill="#240046"></path></svg>