<svg id="visual" viewBox="0 0 960 540" width="960" height="540" xmlns="http://www.w3.org/2000/svg" xmlns:xlink="http://www.w3.org/1999/xlink" version="1.1"><path d="M0 114L87 98L175 104L262 39L349 82L436 55L524 71L611 98L698 55L785 109L873 77L960 60L960 0L873 0L785 0L698 0L611 0L524 0L436 0L349 0L262 0L175 0L87 0L0 0Z" fill="#5a189a"></path><path d="M0 158L87 147L175 141L262 109L349 147L436 147L524 152L611 152L698 114L785 147L873 125L960 152L960 58L873 75L785 107L698 53L611 96L524 69L436 53L349 80L262 37L175 102L87 96L0 112Z" fill="#41177d"></path><path d="M0 282L87 244L175 260L262 179L349 233L436 201L524 260L611 293L698 217L785 244L873 249L960 266L960 150L873 123L785 145L698 112L611 150L524 150L436 145L349 145L262 107L175 139L87 145L0 156Z" fill="#2c1361"></path><path d="M0 455L87 406L175 406L262 411L349 465L436 390L524 411L611 471L698 347L785 379L873 395L960 471L960 264L873 247L785 242L698 215L611 291L524 258L436 199L349 231L262 177L175 258L87 242L0 280Z" fill="#1a0e45"></path><path d="M0 541L87 541L175 541L262 541L349 541L436 541L524 541L611 541L698 541L785 541L873 541L960 541L960 469L873 393L785 377L698 345L611 469L524 409L436 388L349 463L262 409L175 404L87 404L0 453Z" fill="#10002b"></path></svg>