<svg id="visual" viewBox="0 0 960 540" width="960" height="540" xmlns="http://www.w3.org/2000/svg" xmlns:xlink="http://www.w3.org/1999/xlink" version="1.1"><path d="M0 201L26.7 209C53.3 217 106.7 233 160 243.8C213.3 254.7 266.7 260.3 320 256.8C373.3 253.3 426.7 240.7 480 235.2C533.3 229.7 586.7 231.3 640 226.8C693.3 222.3 746.7 211.7 800 203.7C853.3 195.7 906.7 190.3 933.3 187.7L960 185L960 0L933.3 0C906.7 0 853.3 0 800 0C746.7 0 693.3 0 640 0C586.7 0 533.3 0 480 0C426.7 0 373.3 0 320 0C266.7 0 213.3 0 160 0C106.7 0 53.3 0 26.7 0L0 0Z" fill="#3a196d"></path><path d="M0 395L26.7 396C53.3 397 106.7 399 160 404.5C213.3 410 266.7 419 320 418C373.3 417 426.7 406 480 400.5C533.3 395 586.7 395 640 402.2C693.3 409.3 746.7 423.7 800 426.3C853.3 429 906.7 420 933.3 415.5L960 411L960 183L933.3 185.7C906.7 188.3 853.3 193.7 800 201.7C746.7 209.7 693.3 220.3 640 224.8C586.7 229.3 533.3 227.7 480 233.2C426.7 238.7 373.3 251.3 320 254.8C266.7 258.3 213.3 252.7 160 241.8C106.7 231 53.3 215 26.7 207L0 199Z" fill="#531d94"></path><path d="M0 541L26.7 541C53.3 541 106.7 541 160 541C213.3 541 266.7 541 320 541C373.3 541 426.7 541 480 541C533.3 541 586.7 541 640 541C693.3 541 746.7 541 800 541C853.3 541 906.7 541 933.3 541L960 541L960 409L933.3 413.5C906.7 418 853.3 427 800 424.3C746.7 421.7 693.3 407.3 640 400.2C586.7 393 533.3 393 480 398.5C426.7 404 373.3 415 320 416C266.7 417 213.3 408 160 402.5C106.7 397 53.3 395 26.7 394L0 393Z" fill="#7b4cb2"></path></svg>