<svg id="visual" viewBox="0 0 960 540" width="960" height="540" xmlns="http://www.w3.org/2000/svg" xmlns:xlink="http://www.w3.org/1999/xlink" version="1.1"><rect x="0" y="0" width="960" height="540" fill="#10002b"></rect><path d="M0 336L14.5 329.8C29 323.7 58 311.3 87.2 304.3C116.3 297.3 145.7 295.7 174.8 293.5C204 291.3 233 288.7 262 294.2C291 299.7 320 313.3 349 314.3C378 315.3 407 303.7 436.2 299.3C465.3 295 494.7 298 523.8 302.2C553 306.3 582 311.7 611 315.8C640 320 669 323 698 317C727 311 756 296 785.2 288.5C814.3 281 843.7 281 872.8 292.2C902 303.3 931 325.7 945.5 336.8L960 348L960 541L945.5 541C931 541 902 541 872.8 541C843.7 541 814.3 541 785.2 541C756 541 727 541 698 541C669 541 640 541 611 541C582 541 553 541 523.8 541C494.7 541 465.3 541 436.2 541C407 541 378 541 349 541C320 541 291 541 262 541C233 541 204 541 174.8 541C145.7 541 116.3 541 87.2 541C58 541 29 541 14.5 541L0 541Z" fill="#5A189A" stroke-linecap="round" stroke-linejoin="miter"></path></svg>